<?xml version="1.0" encoding="utf-8"?>
<!-- Generator: Adobe Illustrator 16.0.0, SVG Export Plug-In . SVG Version: 6.00 Build 0)  -->
<!DOCTYPE svg PUBLIC "-//W3C//DTD SVG 1.1//EN" "http://www.w3.org/Graphics/SVG/1.1/DTD/svg11.dtd">
<svg version="1.1" id="Layer_1" xmlns="http://www.w3.org/2000/svg" xmlns:xlink="http://www.w3.org/1999/xlink" x="0px" y="0px"
	 width="50px" height="50px" viewBox="0 0 50 50" enable-background="new 0 0 50 50" xml:space="preserve">
<g>
	
		<linearGradient id="SVGID_1_" gradientUnits="userSpaceOnUse" x1="285.2451" y1="-902.8379" x2="309.8408" y2="-902.8379" gradientTransform="matrix(1 0 0 -1 -272.6104 -890.2812)">
		<stop  offset="0" style="stop-color:#FFFFFF;stop-opacity:0.6"/>
		<stop  offset="1" style="stop-color:#FFFFFF;stop-opacity:0.6"/>
	</linearGradient>
	<polygon fill="url(#SVGID_1_)" points="31.082,10.782 31.082,10.782 24.934,7.231 18.783,10.782 18.783,10.782 12.635,14.332 
		18.783,17.883 24.934,14.332 31.082,17.883 37.23,14.332 	"/>
	
		<linearGradient id="SVGID_2_" gradientUnits="userSpaceOnUse" x1="297.5449" y1="-922.3662" x2="303.6924" y2="-922.3662" gradientTransform="matrix(1 0 0 -1 -272.6104 -890.2812)">
		<stop  offset="0" style="stop-color:#FFFFFF;stop-opacity:0.2"/>
		<stop  offset="1" style="stop-color:#FFFFFF;stop-opacity:0.2"/>
	</linearGradient>
	<polygon fill="url(#SVGID_2_)" points="24.934,28.535 24.934,35.635 31.082,32.086 	"/>
	
		<linearGradient id="SVGID_3_" gradientUnits="userSpaceOnUse" x1="297.5449" y1="-918.8154" x2="309.8408" y2="-918.8154" gradientTransform="matrix(1 0 0 -1 -272.6104 -890.2812)">
		<stop  offset="0" style="stop-color:#FFFFFF;stop-opacity:0.6"/>
		<stop  offset="1" style="stop-color:#FFFFFF;stop-opacity:0.6"/>
	</linearGradient>
	<polygon fill="url(#SVGID_3_)" points="31.082,24.983 24.934,28.535 31.082,32.086 31.082,32.086 37.23,28.535 	"/>
	
		<linearGradient id="SVGID_4_" gradientUnits="userSpaceOnUse" x1="291.3936" y1="-915.2646" x2="309.8408" y2="-915.2646" gradientTransform="matrix(1 0 0 -1 -272.6104 -890.2812)">
		<stop  offset="0" style="stop-color:#FFFFFF;stop-opacity:0.8"/>
		<stop  offset="1" style="stop-color:#FFFFFF;stop-opacity:0.8"/>
	</linearGradient>
	<polygon fill="url(#SVGID_4_)" points="31.082,17.883 24.934,21.434 24.934,14.332 18.783,17.883 18.783,24.983 18.783,24.983 
		18.783,32.086 24.934,35.635 24.934,28.535 31.082,24.983 37.23,21.434 37.23,21.434 37.23,14.332 	"/>
	
		<linearGradient id="SVGID_5_" gradientUnits="userSpaceOnUse" x1="297.5449" y1="-925.917" x2="309.8408" y2="-925.917" gradientTransform="matrix(1 0 0 -1 -272.6104 -890.2812)">
		<stop  offset="0" style="stop-color:#FFFFFF;stop-opacity:0.8"/>
		<stop  offset="1" style="stop-color:#FFFFFF;stop-opacity:0.8"/>
	</linearGradient>
	<polyline fill="url(#SVGID_5_)" points="24.934,35.635 24.934,42.736 31.082,39.186 31.082,39.186 37.23,35.635 37.23,28.535 
		31.082,32.086 31.082,32.086 24.934,35.635 	"/>
	
		<linearGradient id="SVGID_6_" gradientUnits="userSpaceOnUse" x1="297.5449" y1="-908.1641" x2="303.6924" y2="-908.1641" gradientTransform="matrix(1 0 0 -1 -272.6104 -890.2812)">
		<stop  offset="0" style="stop-color:#FFFFFF;stop-opacity:0.2"/>
		<stop  offset="1" style="stop-color:#FFFFFF;stop-opacity:0.2"/>
	</linearGradient>
	<polygon fill="url(#SVGID_6_)" points="24.934,14.332 24.934,21.434 31.082,17.883 	"/>
	
		<linearGradient id="SVGID_7_" gradientUnits="userSpaceOnUse" x1="285.2451" y1="-918.8154" x2="297.5508" y2="-918.8154" gradientTransform="matrix(1 0 0 -1 -272.6104 -890.2812)">
		<stop  offset="0" style="stop-color:#FFFFFF;stop-opacity:0.2"/>
		<stop  offset="1" style="stop-color:#FFFFFF;stop-opacity:0.2"/>
	</linearGradient>
	<polygon fill="url(#SVGID_7_)" points="24.941,35.648 24.934,35.635 24.934,35.635 24.934,35.635 24.926,35.623 24.918,35.629 
		18.783,32.086 18.783,24.983 18.783,24.983 18.783,17.883 12.635,14.332 12.635,21.434 12.635,21.434 12.635,23.988 12.635,28.535 
		12.635,30.467 12.635,35.635 18.783,39.186 18.793,39.18 18.793,39.18 18.783,39.186 24.934,42.736 24.934,35.654 	"/>
	
		<linearGradient id="SVGID_8_" gradientUnits="userSpaceOnUse" x1="291.3945" y1="-915.2651" x2="309.8408" y2="-915.2651" gradientTransform="matrix(1 0 0 -1 -272.6104 -890.2812)">
		<stop  offset="0" style="stop-color:#FFFFFF;stop-opacity:0"/>
		<stop  offset="1" style="stop-color:#FFFFFF;stop-opacity:0.8"/>
	</linearGradient>
	<path fill="url(#SVGID_8_)" d="M24.861,14.457v6.977v0.125l0.107-0.062l6.148-3.551l6.043-3.487v6.935l-6.113,3.529l-6.15,3.552
		l-0.035,0.021v0.041v6.977l-6.006-3.469v-7.06v-7.06L24.861,14.457 M37.23,14.332l-6.148,3.551l-6.148,3.551v-7.103l-6.15,3.55
		v7.102v7.102l6.15,3.552v-7.102l6.148-3.552l6.148-3.55V14.332L37.23,14.332z"/>
	<g>
		
			<linearGradient id="SVGID_9_" gradientUnits="userSpaceOnUse" x1="297.5078" y1="-925.917" x2="309.876" y2="-925.917" gradientTransform="matrix(1 0 0 -1 -272.6104 -890.2812)">
			<stop  offset="0" style="stop-color:#FFFFFF;stop-opacity:0"/>
			<stop  offset="1" style="stop-color:#FFFFFF;stop-opacity:0.5"/>
		</linearGradient>
		<path fill="url(#SVGID_9_)" d="M24.934,42.77c-0.006,0-0.012,0-0.018-0.004c-0.01-0.008-0.018-0.018-0.018-0.027v-7.104
			c0-0.012,0.008-0.021,0.018-0.027l12.301-7.102c0.008-0.006,0.02-0.006,0.031,0c0.011,0.006,0.018,0.018,0.018,0.028v7.101
			c0,0.012-0.006,0.021-0.018,0.027l-6.15,3.551c0,0.002,0,0.002-0.002,0.004l-6.146,3.549C24.945,42.77,24.939,42.77,24.934,42.77z
			 M24.967,35.654v7.025l6.102-3.523l0,0l6.135-3.539v-7.025L24.967,35.654z"/>
	</g>
</g>
</svg>
