<?xml version="1.0" encoding="utf-8"?>
<!-- Generator: Adobe Illustrator 16.0.0, SVG Export Plug-In . SVG Version: 6.00 Build 0)  -->
<!DOCTYPE svg PUBLIC "-//W3C//DTD SVG 1.1//EN" "http://www.w3.org/Graphics/SVG/1.1/DTD/svg11.dtd">
<svg version="1.1" id="Layer_1" xmlns="http://www.w3.org/2000/svg" xmlns:xlink="http://www.w3.org/1999/xlink" x="0px" y="0px"
	 width="960px" height="560px" viewBox="0 0 960 560" enable-background="new 0 0 960 560" xml:space="preserve">
<g>
	<linearGradient id="SVGID_1_" gradientUnits="userSpaceOnUse" x1="479.9395" y1="262.7129" x2="479.9395" y2="296.7925">
		<stop  offset="0" style="stop-color:#000000;stop-opacity:0.7"/>
		<stop  offset="1" style="stop-color:#000000;stop-opacity:0.9"/>
	</linearGradient>
	<circle fill="url(#SVGID_1_)" cx="479.94" cy="279.752" r="17.04"/>
</g>
<g>
	<linearGradient id="SVGID_2_" gradientUnits="userSpaceOnUse" x1="471.4121" y1="271.1367" x2="488.4434" y2="271.1367">
		<stop  offset="0" style="stop-color:#FFFFFF;stop-opacity:0.6"/>
		<stop  offset="1" style="stop-color:#FFFFFF;stop-opacity:0.6"/>
	</linearGradient>
	<polygon fill="url(#SVGID_2_)" points="484.186,269.908 484.186,269.908 479.928,267.449 475.67,269.908 475.67,269.908 
		471.412,272.366 475.67,274.824 479.928,272.366 484.186,274.824 488.443,272.366 	"/>
	<linearGradient id="SVGID_3_" gradientUnits="userSpaceOnUse" x1="479.9282" y1="284.6582" x2="484.1855" y2="284.6582">
		<stop  offset="0" style="stop-color:#FFFFFF;stop-opacity:0.2"/>
		<stop  offset="1" style="stop-color:#FFFFFF;stop-opacity:0.2"/>
	</linearGradient>
	<polygon fill="url(#SVGID_3_)" points="479.928,282.2 479.928,287.116 484.186,284.658 	"/>
	<linearGradient id="SVGID_4_" gradientUnits="userSpaceOnUse" x1="479.9282" y1="282.1992" x2="488.4434" y2="282.1992">
		<stop  offset="0" style="stop-color:#FFFFFF;stop-opacity:0.6"/>
		<stop  offset="1" style="stop-color:#FFFFFF;stop-opacity:0.6"/>
	</linearGradient>
	<polygon fill="url(#SVGID_4_)" points="484.186,279.741 479.928,282.2 484.186,284.658 484.186,284.658 488.443,282.2 	"/>
	<linearGradient id="SVGID_5_" gradientUnits="userSpaceOnUse" x1="475.6699" y1="279.7412" x2="488.4434" y2="279.7412">
		<stop  offset="0" style="stop-color:#FFFFFF;stop-opacity:0.8"/>
		<stop  offset="1" style="stop-color:#FFFFFF;stop-opacity:0.8"/>
	</linearGradient>
	<polygon fill="url(#SVGID_5_)" points="484.186,274.824 479.928,277.283 479.928,272.366 475.67,274.824 475.67,279.741 
		475.67,279.741 475.67,284.658 479.928,287.116 479.928,282.2 484.186,279.741 488.443,277.283 488.443,277.283 488.443,272.366 	
		"/>
	<linearGradient id="SVGID_6_" gradientUnits="userSpaceOnUse" x1="479.9282" y1="287.1172" x2="488.4434" y2="287.1172">
		<stop  offset="0" style="stop-color:#FFFFFF;stop-opacity:0.8"/>
		<stop  offset="1" style="stop-color:#FFFFFF;stop-opacity:0.8"/>
	</linearGradient>
	<polyline fill="url(#SVGID_6_)" points="479.928,287.116 479.928,292.033 484.186,289.574 484.186,289.574 488.443,287.116 
		488.443,282.2 484.186,284.658 484.186,284.658 479.928,287.116 	"/>
	<linearGradient id="SVGID_7_" gradientUnits="userSpaceOnUse" x1="479.9282" y1="274.8247" x2="484.1855" y2="274.8247">
		<stop  offset="0" style="stop-color:#FFFFFF;stop-opacity:0.2"/>
		<stop  offset="1" style="stop-color:#FFFFFF;stop-opacity:0.2"/>
	</linearGradient>
	<polygon fill="url(#SVGID_7_)" points="479.928,272.366 479.928,277.283 484.186,274.824 	"/>
	<linearGradient id="SVGID_8_" gradientUnits="userSpaceOnUse" x1="471.4121" y1="282.1992" x2="479.9336" y2="282.1992">
		<stop  offset="0" style="stop-color:#FFFFFF;stop-opacity:0.2"/>
		<stop  offset="1" style="stop-color:#FFFFFF;stop-opacity:0.2"/>
	</linearGradient>
	<polygon fill="url(#SVGID_8_)" points="479.934,287.125 479.928,287.116 479.928,287.116 479.928,287.116 479.923,287.107 
		479.918,287.111 475.67,284.658 475.67,279.741 475.67,279.741 475.67,274.824 471.412,272.366 471.412,277.283 471.412,277.283 
		471.412,279.053 471.412,282.2 471.412,283.538 471.412,287.116 475.67,289.574 475.677,289.57 475.677,289.57 475.67,289.574 
		479.928,292.033 479.928,287.129 	"/>
	<linearGradient id="SVGID_9_" gradientUnits="userSpaceOnUse" x1="475.6699" y1="279.7412" x2="488.4434" y2="279.7412">
		<stop  offset="0" style="stop-color:#FFFFFF;stop-opacity:0"/>
		<stop  offset="1" style="stop-color:#FFFFFF;stop-opacity:0.8"/>
	</linearGradient>
	<path fill="url(#SVGID_9_)" d="M479.878,272.453v4.83v0.086l0.075-0.043l4.258-2.459l4.184-2.414v4.801l-4.232,2.444l-4.259,2.458
		l-0.025,0.015v0.029v4.829l-4.158-2.4v-4.888v-4.888L479.878,272.453 M488.443,272.366l-4.258,2.458l-4.257,2.459v-4.917
		l-4.258,2.458v4.917v4.917l4.258,2.458V282.2l4.257-2.459l4.258-2.458V272.366L488.443,272.366z"/>
	<g>
		<linearGradient id="SVGID_10_" gradientUnits="userSpaceOnUse" x1="479.9058" y1="287.1172" x2="488.4668" y2="287.1172">
			<stop  offset="0" style="stop-color:#FFFFFF;stop-opacity:0"/>
			<stop  offset="1" style="stop-color:#FFFFFF;stop-opacity:0.5"/>
		</linearGradient>
		<path fill="url(#SVGID_10_)" d="M479.928,292.056c-0.004,0-0.008-0.001-0.011-0.003c-0.007-0.004-0.011-0.012-0.011-0.02v-4.917
			c0-0.008,0.004-0.016,0.011-0.02l8.517-4.916c0.006-0.004,0.014-0.004,0.021,0s0.012,0.011,0.012,0.02v4.916
			c0,0.008-0.004,0.016-0.012,0.02l-4.258,2.458c0,0.001,0,0.001-0.002,0.002l-4.256,2.457
			C479.936,292.055,479.932,292.056,479.928,292.056z M479.951,287.129v4.865l4.225-2.439l0,0l4.246-2.451v-4.865L479.951,287.129z"
			/>
	</g>
</g>
</svg>
