<?xml version="1.0" encoding="utf-8"?>
<!-- Generator: Adobe Illustrator 16.0.0, SVG Export Plug-In . SVG Version: 6.00 Build 0)  -->
<!DOCTYPE svg PUBLIC "-//W3C//DTD SVG 1.1//EN" "http://www.w3.org/Graphics/SVG/1.1/DTD/svg11.dtd">
<svg version="1.1" id="Layer_1" xmlns="http://www.w3.org/2000/svg" xmlns:xlink="http://www.w3.org/1999/xlink" x="0px" y="0px"
	 width="512px" height="512px" viewBox="0 0 512 512" enable-background="new 0 0 512 512" xml:space="preserve">
<path d="M384.128,0.032C256.256-3.2,256.224,93.12,256.224,93.12v0.176c-0.076-0.06-0.148-0.117-0.224-0.176
	c0,0-0.032-96.32-127.904-93.088C0.224,23.328,0.224,139.68,0.224,186.208c0,0,0.011,185.076,253.529,324.585
	c1.028,0.811,1.788,1.238,2.247,1.239c0.074,0,0.163-0.017,0.256-0.038v0.038c0.045-0.024,0.09-0.05,0.136-0.075
	c0.476-0.145,1.151-0.516,2.021-1.115C511.989,371.36,512,186.208,512,186.208C512,139.68,512,23.328,384.128,0.032z"/>
</svg>
