<?xml version="1.0" encoding="utf-8"?>
<!-- Generator: Adobe Illustrator 16.0.0, SVG Export Plug-In . SVG Version: 6.00 Build 0)  -->
<!DOCTYPE svg PUBLIC "-//W3C//DTD SVG 1.1//EN" "http://www.w3.org/Graphics/SVG/1.1/DTD/svg11.dtd">
<svg version="1.1" id="Layer_1" xmlns="http://www.w3.org/2000/svg" xmlns:xlink="http://www.w3.org/1999/xlink" x="0px" y="0px"
	 width="512px" height="512px" viewBox="0 0 512 512" enable-background="new 0 0 512 512" xml:space="preserve">
<path d="M128.096,0.032C255.968-3.2,256,93.12,256,93.12v67.328c-4.32,8-24.992-78.912-90.944-94.944
	C46.944,50.24,62.816,159.872,67.2,207.36c-0.512,3.008,7.712,127.296,188.8,223.264v81.408
	C0.224,372.384,0.224,186.208,0.224,186.208C0.224,139.68,0.224,23.328,128.096,0.032L128.096,0.032z M384.128,0.032
	C512,23.328,512,139.68,512,186.208c0,0,0,186.208-255.744,325.824v-81.408c181.088-95.968,189.312-220.288,188.8-223.264
	c4.353-47.52,20.225-157.152-97.888-141.856c-65.952,16.032-86.624,102.944-90.944,94.944V93.12
	C256.224,93.12,256.256-3.2,384.128,0.032L384.128,0.032z"/>
</svg>
