<?xml version="1.0" encoding="utf-8"?>
<!-- Generator: Adobe Illustrator 16.0.0, SVG Export Plug-In . SVG Version: 6.00 Build 0)  -->
<!DOCTYPE svg PUBLIC "-//W3C//DTD SVG 1.1//EN" "http://www.w3.org/Graphics/SVG/1.1/DTD/svg11.dtd">
<svg version="1.1" id="Layer_1" xmlns="http://www.w3.org/2000/svg" xmlns:xlink="http://www.w3.org/1999/xlink" x="0px" y="0px"
	 width="512px" height="512px" viewBox="0 0 512 512" enable-background="new 0 0 512 512" xml:space="preserve">
<path d="M254.796,0c0,0-193.526,2.195-193.526,211.334C61.27,317.551,254.796,512,254.796,512s195.934-192.254,195.934-301.763
	C450.729,2.195,254.796,0,254.796,0z M255.256,409.521c0,0-122.999-120.294-123.211-193.335
	C131.584,72.475,255.186,70.811,255.256,70.811c0.213,0,125.405,1.629,124.237,144.596
	C378.926,290.713,255.256,409.521,255.256,409.521z M255.999,141.622c-29.315,0-53.108,23.792-53.108,53.108
	c0,29.315,23.792,53.108,53.108,53.108c29.316,0,53.108-23.792,53.108-53.108C309.107,165.414,285.315,141.622,255.999,141.622z"/>
</svg>
